<svg width="225" height="168" viewBox="0 0 225 168" fill="none" xmlns="http://www.w3.org/2000/svg">
<path d="M224.562 147.717H-6.10352e-05V147.83H224.562V147.717Z" fill="#EBEBEB"/>
<path d="M202.061 154.944H187.186V155.056H202.061V154.944Z" fill="#EBEBEB"/>
<path d="M148.759 156.166H144.856V156.278H148.759V156.166Z" fill="#EBEBEB"/>
<path d="M186.737 150.776H178.118V150.889H186.737V150.776Z" fill="#EBEBEB"/>
<path d="M42.9587 151.531H23.561V151.643H42.9587V151.531Z" fill="#EBEBEB"/>
<path d="M49.8033 151.531H46.9604V151.643H49.8033V151.531Z" fill="#EBEBEB"/>
<path d="M101.12 153.426H59.0463V153.538H101.12V153.426Z" fill="#EBEBEB"/>
<path d="M106.442 127.687H19.721C19.0416 127.685 18.3905 127.415 17.9105 126.934C17.4305 126.453 17.1609 125.801 17.1609 125.122V3.2163C17.1669 2.54083 17.439 1.89497 17.9184 1.419C18.3977 0.943038 19.0455 0.675412 19.721 0.674255H106.442C107.123 0.674255 107.775 0.944443 108.256 1.42538C108.737 1.90632 109.007 2.55861 109.007 3.23875V125.122C109.007 125.802 108.737 126.455 108.256 126.936C107.775 127.416 107.123 127.687 106.442 127.687ZM19.721 0.764081C19.0714 0.76527 18.4488 1.02415 17.9899 1.4839C17.531 1.94366 17.2732 2.56671 17.2732 3.2163V125.122C17.2732 125.772 17.531 126.395 17.9899 126.855C18.4488 127.314 19.0714 127.573 19.721 127.574H106.442C107.092 127.573 107.715 127.314 108.175 126.855C108.635 126.395 108.893 125.772 108.895 125.122V3.2163C108.893 2.56629 108.635 1.94325 108.175 1.48363C107.715 1.02401 107.092 0.765268 106.442 0.764081H19.721Z" fill="#EBEBEB"/>
<path d="M203.592 127.687H116.867C116.187 127.685 115.535 127.415 115.054 126.934C114.574 126.454 114.303 125.802 114.302 125.122V3.2163C114.309 2.54042 114.582 1.89456 115.062 1.41872C115.542 0.942881 116.191 0.6754 116.867 0.674255H203.592C204.267 0.676593 204.914 0.94474 205.392 1.42058C205.87 1.89642 206.142 2.5416 206.148 3.2163V125.122C206.148 125.801 205.879 126.452 205.4 126.932C204.921 127.413 204.271 127.684 203.592 127.687ZM116.867 0.764081C116.217 0.765268 115.593 1.02401 115.134 1.48363C114.674 1.94325 114.416 2.56629 114.414 3.2163V125.122C114.416 125.772 114.674 126.395 115.134 126.855C115.593 127.314 116.217 127.573 116.867 127.574H203.592C204.242 127.573 204.865 127.314 205.325 126.855C205.785 126.395 206.043 125.772 206.045 125.122V3.2163C206.043 2.56629 205.785 1.94325 205.325 1.48363C204.865 1.02401 204.242 0.765268 203.592 0.764081H116.867Z" fill="#EBEBEB"/>
<path d="M72.7581 17.0941H31.9327V67.9978H72.7581V17.0941Z" fill="#F5F5F5"/>
<path d="M39.4061 23.7411C44.5486 20.0538 44.562 18.0327 48.2449 22.1602C51.9277 26.2876 54.4922 31.2819 61.1751 28.677C67.8581 26.0721 71.5814 32.8179 67.3057 39.0069C63.03 45.1958 64.6109 53.6842 67.3057 57.7398C70.0004 61.7954 68.7519 67.2613 64.4313 64.2072C60.1107 61.1532 54.2586 61.1532 50.0818 63.309C45.9049 65.4648 41.005 70.8049 41.3822 61.4855C41.7595 52.1662 36.9584 55.0855 35.7233 50.3742C34.4882 45.6629 40.4481 48.654 39.4061 38.3332C38.3641 28.0123 34.852 27.0062 39.4061 23.7411Z" fill="#E0E0E0"/>
<path d="M64.5571 22.1606C58.3053 19.394 55.6554 18.0242 52.7272 24.2041C49.7989 30.3841 43.9019 38.5986 39.6397 36.3305C35.3775 34.0624 36.671 44.4147 44.8495 41.8233C53.0281 39.2318 54.9997 40.5343 57.8741 46.7637C60.7485 52.993 60.0658 56.4603 63.5376 54.1877C67.0093 51.9151 62.2216 44.9178 64.1843 39.2678C66.147 33.6178 70.1711 24.6488 64.5571 22.1606Z" fill="#EBEBEB"/>
<path d="M42.6667 53.6711C45.1908 48.8385 41.7685 41.0956 48.3616 44.3472C54.9548 47.5989 52.1971 60.0666 57.8606 57.1158C63.5241 54.1651 59.6885 45.6272 64.5256 45.2096C69.3627 44.7919 68.8372 63.8168 61.7815 64.2075C54.7257 64.5983 48.6356 58.3285 46.5112 60.4933C44.3869 62.658 38.4584 67.6074 37.2278 61.4723C35.9972 55.3373 40.713 57.3988 42.6667 53.6711Z" fill="#EBEBEB"/>
<path d="M81.7764 81.4854H121.452V28.2687L81.7764 28.2687V81.4854Z" fill="#F5F5F5"/>
<path d="M87.3771 33.6177C88.5223 31.4888 116.911 42.187 116.148 44.5C115.384 46.8129 93.9657 48.7307 92.0704 51.8746C90.1751 55.0184 114.756 59.1773 114.311 61.3062C113.866 63.435 90.6152 61.5577 90.1841 63.6731C89.7529 65.7884 114.679 69.4623 113.013 72.6556C111.347 75.8488 90.6467 73.5538 88.3696 68.1643C86.0926 62.7748 98.6276 63.1431 98.9824 59.5681C99.3372 55.993 85.6255 55.3059 87.3681 49.5706C89.1107 43.8352 107.13 47.9672 105.45 42.9684C103.77 37.9697 85.2033 37.6463 87.3771 33.6177Z" fill="#E6E6E6"/>
<path d="M109.092 33.9096C112.798 33.0428 117.078 39.6629 112.685 38.1808C108.293 36.6987 105.387 34.7674 109.092 33.9096Z" fill="#EBEBEB"/>
<path d="M92.3713 42.2811C92.5555 40.4307 87.0896 40.7585 87.0267 42.2811C86.9639 43.8036 92.1782 44.2033 92.3713 42.2811Z" fill="#EBEBEB"/>
<path d="M113.022 53.3925C111.023 50.0914 105.135 51.5196 105.198 53.0422C105.261 54.5647 115.187 56.9585 113.022 53.3925Z" fill="#EBEBEB"/>
<path d="M140.145 28.0171L156.668 18.4014H169.401L186.198 27.5635V89.866H140.145V28.0171Z" fill="#E0E0E0"/>
<path d="M186.669 89.8658H140.127V28.0169L140.603 27.5678C146.722 21.6723 154.894 18.3882 163.391 18.4101C171.89 18.388 180.064 21.672 186.184 27.5678L186.656 28.0169L186.669 89.8658ZM143.23 86.7803H183.584V29.3418C178.078 24.2924 170.878 21.4911 163.407 21.4911C155.936 21.4911 148.737 24.2924 143.23 29.3418V86.7803Z" fill="#FAFAFA"/>
<path d="M162.251 87.1485H164.564V66.4708H184.168V64.1578H164.564V43.0086H184.168V40.6956H164.564V21.0913H162.251V40.6956H142.646V43.0086H162.251V64.1578H142.646V66.4708H162.251V87.1485Z" fill="#F0F0F0"/>
<path d="M188.215 91.3974H138.6V27.3882L139.049 26.9391C145.513 20.4893 154.271 16.8671 163.403 16.8671C172.534 16.8671 181.292 20.4893 187.756 26.9391L188.206 27.3882L188.215 91.3974ZM141.685 88.3119H185.129V28.6727C179.285 23.0715 171.502 19.9445 163.407 19.9445C155.312 19.9445 147.53 23.0715 141.685 28.6727V88.3119Z" fill="#F0F0F0"/>
<path d="M112.281 168C160.374 168 199.362 165.724 199.362 162.916C199.362 160.108 160.374 157.832 112.281 157.832C64.1878 157.832 25.2004 160.108 25.2004 162.916C25.2004 165.724 64.1878 168 112.281 168Z" fill="#F5F5F5"/>
<path d="M117.379 81.4852V41.3469H55.368V163.199H130.852V111.747L117.379 81.4852Z" fill="#407BFF"/>
<path opacity="0.2" d="M130.848 111.747V163.199H76.6879L70.517 151.814L85.6659 142.979L68.4061 128.765L81.4442 112.717L66.5332 99.5355L74.5321 76.5268L62.8055 77.3038V53.7877L55.368 61.4183V41.3469H117.374V81.4852L130.848 111.747Z" fill="black"/>
<path opacity="0.2" d="M117.374 41.3469H81.4442V81.4807H117.374V41.3469Z" fill="white"/>
<path opacity="0.4" d="M81.4442 81.4852L94.9179 111.747H130.852L117.379 81.4852H81.4442Z" fill="white"/>
<path opacity="0.2" d="M130.848 111.747H94.9179V163.199H130.848V111.747Z" fill="white"/>
<path opacity="0.3" d="M107.893 87.7192L115.178 104.602H123.294L115.178 87.7192H107.893Z" fill="black"/>
<path d="M121.16 94.7929C119.683 91.1999 117.491 89.107 115.093 88.1189H108.805L115.991 104.22H122.279C122.984 101.858 122.503 98.0445 121.16 94.7929Z" fill="#407BFF"/>
<path opacity="0.7" d="M122.261 104.22H115.973L108.787 88.1189H115.075C115.568 88.3222 116.043 88.5687 116.494 88.8555C118.208 89.989 119.588 91.5597 120.491 93.4051C120.731 93.8565 120.949 94.3197 121.142 94.7929C121.888 96.5998 122.356 98.5093 122.53 100.456C122.671 101.717 122.58 102.992 122.261 104.22Z" fill="white"/>
<path opacity="0.1" d="M115.973 104.22L108.787 88.1189C111.185 89.107 113.377 91.2179 114.855 94.7929C116.215 98.0445 116.696 101.858 115.973 104.22Z" fill="black"/>
<path opacity="0.4" d="M122.261 104.22H116.188C116.336 102.976 116.377 101.721 116.31 100.47C116.31 100.47 117.801 99.639 117.873 99.877C117.944 100.115 117.931 101 118.439 100.883C118.946 100.766 119.862 99.8456 119.939 100.362C120.015 100.879 120.082 102.365 120.787 101.889C121.493 101.413 121.96 99.8411 122.548 100.456C122.683 101.718 122.586 102.994 122.261 104.22Z" fill="#407BFF"/>
<path opacity="0.3" d="M98.9106 87.7192L106.195 104.602H114.311L106.195 87.7192H98.9106Z" fill="black"/>
<path d="M112.178 94.7929C110.7 91.1999 108.508 89.107 106.11 88.1189H99.8223L107.008 104.22H113.296C114.001 101.858 113.521 98.0445 112.178 94.7929Z" fill="#407BFF"/>
<path opacity="0.7" d="M112.178 94.7929C110.7 91.1999 108.508 89.107 106.11 88.1189H99.8223L107.008 104.22H113.296C114.001 101.858 113.521 98.0445 112.178 94.7929Z" fill="white"/>
<path opacity="0.1" d="M106.99 104.22L99.8044 88.1189C102.203 89.107 104.394 91.2179 105.872 94.7929C107.233 98.0445 107.713 101.858 106.99 104.22Z" fill="black"/>
<path d="M102.513 88.1189C102.797 88.5162 103.177 88.835 103.617 89.0455C104.058 89.256 104.545 89.3513 105.032 89.3226C106.689 89.2013 105.445 88.1189 105.445 88.1189H102.513Z" fill="#407BFF"/>
<path d="M109.056 104.22L108.791 102.765H109.77L110.422 103.492H111.131L111.724 102.765H112.883L112.254 104.22H109.056Z" fill="#407BFF"/>
<path opacity="0.3" d="M89.9281 87.7192L97.2129 104.602H105.329L97.2129 87.7192H89.9281Z" fill="black"/>
<path d="M103.195 94.7929C101.718 91.1999 99.526 89.107 97.1276 88.1189H90.8399L98.0259 104.22H104.314C105.019 101.858 104.538 98.0445 103.195 94.7929Z" fill="#407BFF"/>
<path opacity="0.7" d="M103.195 94.7929C101.718 91.1999 99.526 89.107 97.1276 88.1189H90.8399L98.0259 104.22H104.314C105.019 101.858 104.538 98.0445 103.195 94.7929Z" fill="white"/>
<path opacity="0.1" d="M98.0079 104.22L90.8219 88.1189C93.2202 89.107 95.4119 91.2179 96.8896 94.7929C98.2504 98.0445 98.731 101.858 98.0079 104.22Z" fill="black"/>
<path d="M93.5301 88.1189C93.8141 88.5162 94.1941 88.835 94.6348 89.0455C95.0754 89.256 95.5622 89.3513 96.0497 89.3226C97.707 89.2013 96.4629 88.1189 96.4629 88.1189H93.5301Z" fill="#407BFF"/>
<path d="M100.074 104.22L99.8089 102.765H100.788L101.439 103.492H102.149L102.742 102.765H103.9L103.272 104.22H100.074Z" fill="#407BFF"/>
<path d="M104.632 106.614H118.951L120.478 109.277H105.908L104.632 106.614Z" fill="#407BFF"/>
<path d="M85.666 83.0438L87.0268 85.7071H95.376L94.0152 83.0438H85.666Z" fill="#407BFF"/>
<path opacity="0.3" d="M114.311 52.6292H84.9249V73.0599H114.311V52.6292Z" fill="white"/>
<path opacity="0.4" d="M107.893 45.7887H92.1199V48.452H107.893V45.7887Z" fill="black"/>
<path opacity="0.1" d="M90.0719 54.9375H87.6421V57.3673H90.0719V54.9375Z" fill="black"/>
<path opacity="0.1" d="M90.5783 60.7683L88.8602 59.0502L87.1421 60.7683L88.8602 62.4864L90.5783 60.7683Z" fill="black"/>
<path opacity="0.1" d="M90.1616 65.3887C90.1616 65.6463 90.0852 65.8981 89.9421 66.1123C89.799 66.3265 89.5956 66.4934 89.3576 66.592C89.1196 66.6906 88.8577 66.7164 88.6051 66.6661C88.3524 66.6159 88.1203 66.4918 87.9382 66.3097C87.756 66.1275 87.632 65.8955 87.5817 65.6428C87.5315 65.3901 87.5573 65.1283 87.6558 64.8903C87.7544 64.6523 87.9214 64.4489 88.1356 64.3057C88.3497 64.1626 88.6016 64.0862 88.8592 64.0862C89.2046 64.0862 89.5359 64.2235 89.7801 64.4677C90.0244 64.712 90.1616 65.0433 90.1616 65.3887Z" fill="black"/>
<path opacity="0.1" d="M90.4087 69.0309H87.3052V70.9846H90.4087V69.0309Z" fill="black"/>
<path opacity="0.1" d="M110.601 55.764H92.3579V56.1503H110.601V55.764Z" fill="black"/>
<path opacity="0.1" d="M110.601 60.5784H92.3579V60.9647H110.601V60.5784Z" fill="black"/>
<path opacity="0.1" d="M110.601 64.9396H92.3579V65.3258H110.601V64.9396Z" fill="black"/>
<path opacity="0.1" d="M110.601 69.7498H92.3579V70.1361H110.601V69.7498Z" fill="black"/>
<path d="M123.289 30.5099H55.3681V41.3473H123.289V30.5099Z" fill="#407BFF"/>
<path opacity="0.3" d="M123.294 30.5096H85.666V41.347H123.294V30.5096Z" fill="white"/>
<path opacity="0.7" d="M121.942 39.9995V31.8569L87.0088 31.8569V39.9995H121.942Z" fill="white"/>
<path opacity="0.2" d="M81.4442 41.3469L85.666 45.7888H117.437V41.3469H81.4442Z" fill="black"/>
<g opacity="0.2">
<path opacity="0.2" d="M122.822 148.225H106.384V119.481H122.822V148.225ZM106.833 147.776H122.373V119.93H106.833V147.776Z" fill="black"/>
</g>
<path opacity="0.2" d="M55.368 65.3888L60.3174 60.9604V82.213L68.8462 81.4854L62.1049 101.049L74.5277 113.661L62.9897 130.009L78.1117 142.445L65.4688 149.73L72.044 163.199H55.368V65.3888Z" fill="white"/>
<path d="M73.616 88.4647H70.9212C67.0767 88.4647 63.9553 94.6447 63.9553 102.271C63.9553 109.897 67.0767 116.099 70.9212 116.099H73.616C77.465 116.099 80.5819 109.919 80.5819 102.289C80.5819 94.6581 77.465 88.4647 73.616 88.4647Z" fill="#263238"/>
<path opacity="0.2" d="M70.9212 116.081C74.7684 116.081 77.8871 109.898 77.8871 102.271C77.8871 94.6434 74.7684 88.4602 70.9212 88.4602C67.074 88.4602 63.9553 94.6434 63.9553 102.271C63.9553 109.898 67.074 116.081 70.9212 116.081Z" fill="white"/>
<path d="M69.7759 94.3347H68.2265C66.0168 94.3347 64.2248 97.8873 64.2248 102.271C64.2248 106.654 66.0213 110.207 68.2265 110.207H69.7759C71.9856 110.207 73.7821 106.654 73.7821 102.271C73.7821 97.8873 71.9856 94.3347 69.7759 94.3347Z" fill="#263238"/>
<path opacity="0.3" d="M68.2265 110.207C70.4365 110.207 72.2282 106.654 72.2282 102.271C72.2282 97.8878 70.4365 94.3347 68.2265 94.3347C66.0164 94.3347 64.2248 97.8878 64.2248 102.271C64.2248 106.654 66.0164 110.207 68.2265 110.207Z" fill="white"/>
<path d="M67.5797 97.4741H66.6455C65.2982 97.4741 64.2248 99.6209 64.2248 102.271C64.2248 104.921 65.3072 107.067 66.6455 107.067H67.5797C68.9271 107.067 70.0005 104.921 70.0005 102.271C70.0005 99.6209 68.9181 97.4741 67.5797 97.4741Z" fill="#263238"/>
<path opacity="0.2" d="M69.0618 102.271C69.0618 104.921 67.9794 107.067 66.6455 107.067C65.3116 107.067 64.2248 104.921 64.2248 102.271C64.2248 99.6209 65.3072 97.4741 66.6455 97.4741C67.9839 97.4741 69.0618 99.6209 69.0618 102.271Z" fill="white"/>
<path d="M66.9868 101.997C67.02 101.544 66.8731 101.097 66.5781 100.753H65.0826V65.8646C65.5086 65.6338 65.8456 65.2675 66.0401 64.8237C66.2346 64.3798 66.2756 63.8838 66.1566 63.4141C66.0375 62.9444 65.7653 62.5278 65.3828 62.2302C65.0004 61.9326 64.5297 61.771 64.0451 61.771C63.5605 61.771 63.0898 61.9326 62.7073 62.2302C62.3249 62.5278 62.0526 62.9444 61.9336 63.4141C61.8145 63.8838 61.8555 64.3798 62.05 64.8237C62.2446 65.2675 62.5815 65.6338 63.0076 65.8646V102.926C63.0102 103.172 63.0996 103.408 63.2599 103.594C63.4202 103.779 63.6411 103.902 63.8833 103.94C64.1256 103.978 64.3735 103.93 64.5832 103.802C64.7929 103.675 64.9507 103.478 65.0287 103.245H66.5781C66.8729 102.899 67.0197 102.45 66.9868 101.997Z" fill="#263238"/>
<path d="M136.83 68.2184C136.83 68.2184 130.026 76.8461 125.571 77.0257L125.162 80.3762H128.131C128.131 80.3762 137.091 72.1976 137.679 70.3203C138.267 68.4429 136.83 68.2184 136.83 68.2184Z" fill="#407BFF"/>
<path d="M145.835 66.5746C145.835 66.5746 158.757 66.2242 159.623 65.1463C160.49 64.0684 157.045 49.3731 157.045 49.3731C157.026 48.5411 156.819 47.7242 156.439 46.9838C156.109 46.2222 155.705 45.4943 155.235 44.81L151.97 48.2548C152.55 48.9548 153.093 49.6849 153.596 50.442C153.933 51.0483 155.024 51.1337 155.024 51.1337C155.024 51.1337 156.628 62.519 156.152 62.6178C155.676 62.7166 144.739 61.7555 144.739 61.7555L145.835 66.5746Z" fill="#E4897B"/>
<path d="M158.173 52.1443L154.62 52.0231L155.451 61.5849C155.451 61.5849 150.906 60.9427 146.468 60.5564L148.175 67.4909C152.159 67.0418 160.302 66.0402 160.84 65.389C161.577 64.5267 158.173 52.1443 158.173 52.1443Z" fill="#407BFF"/>
<path opacity="0.7" d="M160.836 65.389C160.571 65.7034 158.563 66.0941 156.107 66.4669C153.443 66.8711 150.246 67.2529 148.171 67.4909L146.464 60.5564C150.906 60.9427 155.447 61.5849 155.447 61.5849L154.616 52.0231L158.168 52.1443C158.168 52.1443 161.577 64.5267 160.836 65.389Z" fill="white"/>
<path opacity="0.2" d="M156.107 66.4667C153.443 66.8709 150.246 67.2527 148.171 67.4907L146.464 60.5562C146.464 60.5562 152.298 62.3078 156.107 66.4667Z" fill="black"/>
<path d="M130.12 55.9574C130.062 56.7213 129.911 57.4753 129.671 58.203C129.868 58.3197 130.093 58.3794 130.321 58.3755C130.55 58.3715 130.772 58.304 130.965 58.1806L130.12 55.9574Z" fill="#DE5753"/>
<path d="M129.2 55.4676C129.245 55.7641 129.442 55.9752 129.649 55.9437C129.855 55.9123 129.968 55.6518 129.923 55.3599C129.878 55.0679 129.68 54.8523 129.474 54.8838C129.267 54.9152 129.155 55.1847 129.2 55.4676Z" fill="#263238"/>
<path d="M128.804 53.9228C128.768 53.9249 128.731 53.9139 128.702 53.8919C128.672 53.8699 128.651 53.8382 128.643 53.8024C128.634 53.7665 128.639 53.7288 128.655 53.6959C128.671 53.6629 128.699 53.6367 128.733 53.6219C128.975 53.4812 129.246 53.3979 129.526 53.3784C129.805 53.3589 130.085 53.4038 130.345 53.5096C130.363 53.5194 130.379 53.5326 130.393 53.5486C130.406 53.5646 130.416 53.583 130.422 53.6028C130.428 53.6226 130.43 53.6434 130.428 53.664C130.426 53.6846 130.42 53.7047 130.41 53.723C130.4 53.7412 130.387 53.7574 130.371 53.7706C130.355 53.7838 130.337 53.7937 130.317 53.7997C130.297 53.8057 130.276 53.8078 130.256 53.8058C130.235 53.8038 130.215 53.7978 130.197 53.7881C129.982 53.7087 129.751 53.6784 129.523 53.6994C129.294 53.7203 129.073 53.7921 128.876 53.9093C128.853 53.9182 128.829 53.9227 128.804 53.9228Z" fill="#263238"/>
<path d="M131.297 58.9575C131.396 59.1004 131.504 59.2369 131.62 59.3662C132.27 60.1171 133.133 60.6515 134.095 60.8977C134.336 60.964 134.583 61.0106 134.832 61.037C135.49 61.1128 136.156 61.0414 136.783 60.8277C137.41 60.6141 137.981 60.2637 138.456 59.8019C138.881 59.3809 139.218 58.8803 139.449 58.3287C140.446 56.0202 139.651 54.116 138.55 50.7924C138.332 50.0718 137.944 49.4141 137.419 48.8747C136.543 47.9697 135.345 47.4469 134.086 47.42C132.828 47.3931 131.609 47.8642 130.695 48.731C128 51.2955 129.447 56.3077 131.297 58.9575Z" fill="#E4897B"/>
<path opacity="0.2" d="M134.095 60.8976C134.336 60.9638 134.583 61.0104 134.832 61.0368C135.49 61.1126 136.156 61.0412 136.783 60.8276C137.41 60.6139 137.981 60.2635 138.456 59.8017C138.158 59.461 137.819 59.1593 137.446 58.9034C136.161 59.2329 134.997 59.9251 134.095 60.8976Z" fill="black"/>
<path d="M142.287 62.5594C141.254 64.6433 137.118 65.6359 137.118 65.6359C137.118 65.6359 134.423 65.9233 134.621 64.9577C135.968 64.1537 136.417 63.2106 136.359 62.236C136.309 61.6393 136.14 61.0587 135.86 60.5293C135.717 60.2299 135.556 59.939 135.38 59.658L138.829 54.1652C139.121 56.7881 140.046 61.4545 142.287 62.5594Z" fill="#E4897B"/>
<path d="M139.929 57.8257C139.929 57.8257 144.142 51.0889 138.209 46.6695C138.82 46.7791 139.389 47.0558 139.853 47.4689C139.853 47.4689 139.381 44.6304 134.428 45.1784C129.474 45.7263 128.387 48.2504 128.387 48.2504L128.49 47.0243C128.49 47.0243 125.243 50.0738 129.249 51.7895C129.249 51.7895 130.183 50.8284 130.323 52.0679C130.462 53.3075 131.701 55.1444 132.865 55.7957C134.028 56.4469 135.658 59.209 135.658 59.209C135.658 59.209 137.814 57.6865 139.929 57.8257Z" fill="#263238"/>
<path d="M133.839 54.8163C133.898 55.1465 133.882 55.4858 133.793 55.8091C133.704 56.1324 133.543 56.4316 133.323 56.6847C132.77 57.2236 131.975 56.4601 131.683 55.4451C131.436 54.5468 131.409 53.1456 132.182 53.0333C132.954 52.921 133.736 53.8507 133.839 54.8163Z" fill="#E4897B"/>
<path d="M134.315 63.0579C134.315 63.0579 136.74 60.2194 140.042 59.5278C143.343 58.8361 144.138 61.4186 144.138 61.4186L134.315 63.0579Z" fill="#407BFF"/>
<path opacity="0.7" d="M134.315 63.0579C134.315 63.0579 136.74 60.2194 140.042 59.5278C143.343 58.8361 144.138 61.4186 144.138 61.4186L134.315 63.0579Z" fill="white"/>
<path opacity="0.2" d="M143.522 60.4082C141.277 59.8019 134.607 62.9412 134.607 62.9412L136.817 64.073C136.817 64.073 145.364 60.9067 143.522 60.4082Z" fill="black"/>
<path d="M134.203 159.853L130.561 160.235L130.376 158.124L129.878 152.38L133.52 151.993L134.073 158.339L134.203 159.853Z" fill="#E4897B"/>
<path d="M165.857 159.391H162.327L162.152 158.596L162.129 158.497L161.034 153.399L161.007 153.296L160.584 151.342H164.119L165.857 159.391Z" fill="#E4897B"/>
<path opacity="0.2" d="M133.52 151.993L134.073 158.339L130.376 158.124L129.878 152.38L133.52 151.993Z" fill="black"/>
<path opacity="0.2" d="M165.754 158.946H165.749L162.134 158.497H162.129L161.061 153.579H161.065L164.654 153.862L165.722 158.789L165.754 158.946Z" fill="black"/>
<path d="M161.838 159.18H166.127C166.197 159.179 166.266 159.203 166.32 159.247C166.375 159.291 166.413 159.353 166.428 159.422L167.124 162.566C167.138 162.642 167.136 162.721 167.117 162.796C167.097 162.871 167.062 162.941 167.013 163.001C166.963 163.061 166.902 163.11 166.831 163.143C166.761 163.176 166.685 163.194 166.607 163.195C165.22 163.172 164.209 163.087 162.466 163.087C161.393 163.087 158.155 163.199 156.673 163.199C155.191 163.199 154.997 161.735 155.604 161.6C158.325 161.007 160.373 160.186 161.245 159.404C161.406 159.255 161.618 159.175 161.838 159.18Z" fill="#263238"/>
<path d="M130.174 159.067H134.463C134.534 159.067 134.602 159.091 134.657 159.135C134.712 159.179 134.75 159.241 134.764 159.31L135.46 162.454C135.475 162.53 135.472 162.608 135.453 162.684C135.434 162.759 135.399 162.829 135.349 162.889C135.3 162.949 135.238 162.997 135.168 163.031C135.098 163.064 135.022 163.082 134.944 163.082C133.556 163.06 132.546 162.975 130.803 162.975C129.73 162.975 126.491 163.087 125.009 163.087C123.527 163.087 123.334 161.623 123.94 161.488C126.662 160.895 128.71 160.073 129.581 159.292C129.743 159.143 129.955 159.063 130.174 159.067Z" fill="#263238"/>
<path d="M129.546 156.696L134.755 156.867C132.86 122.032 131.975 120.254 148.885 103.802C149.28 108.779 149.725 113.939 150.16 118.242C150.434 120.905 150.515 123.232 150.96 124.938C153.969 136.476 161.209 156.893 161.209 156.893L166.293 157.123C166.293 157.123 159.929 129.124 159.273 120.016C158.415 108.051 161.209 95.0984 159.623 85.7342L141.861 88.7478C125.755 112.318 122.804 117.411 129.546 156.696Z" fill="#263238"/>
<path opacity="0.2" d="M148.885 103.78C149.28 108.756 149.725 113.93 150.16 118.233C150.798 112.021 151.58 107.593 151.58 107.593C151.58 107.593 152.312 106.991 154.324 103.78C156.336 100.569 154.324 94.5729 154.324 94.5729C154.387 100.142 148.885 103.78 148.885 103.78Z" fill="black"/>
<path d="M128.962 156.135L129.218 157.594H135.335V156.247L128.962 156.135Z" fill="#407BFF"/>
<path d="M160.607 156.696L161.195 158.043H166.764L166.661 156.696H160.607Z" fill="#407BFF"/>
<path d="M131.993 64.0821C131.993 64.0821 141.384 59.4786 147.07 60.5789C152.756 61.6793 159.331 75.921 160.93 88.254L140.199 90.284C140.199 90.284 139.076 81.4857 135.496 75.8536L131.993 64.0821Z" fill="#407BFF"/>
<path opacity="0.7" d="M160.93 88.254L140.199 90.284C139.843 87.8176 139.304 85.3811 138.586 82.9947C137.877 80.4881 136.838 78.0868 135.496 75.8536L134.495 72.4942L131.993 64.0821C131.993 64.0821 141.384 59.4786 147.07 60.5789C152.756 61.6793 159.331 75.921 160.93 88.254Z" fill="white"/>
<path opacity="0.2" d="M138.586 82.9945C137.877 80.4879 136.838 78.0866 135.496 75.8534L134.495 72.494L138.456 71.982C138.456 71.982 139.902 78.5931 138.586 82.9945Z" fill="black"/>
<path d="M137.297 72.0404C137.297 72.0404 136.516 84.9438 135.411 85.7746C134.306 86.6055 119.732 82.6712 119.732 82.6712C118.902 82.6218 118.093 82.387 117.365 81.984C116.616 81.6251 115.901 81.1965 115.232 80.704L118.784 77.5601C119.466 78.1628 120.178 78.7295 120.918 79.2578C121.511 79.6126 121.56 80.704 121.56 80.704C121.56 80.704 132.882 82.6936 132.999 82.2176C133.116 81.7415 132.523 70.7874 132.523 70.7874L137.297 72.0404Z" fill="#E4897B"/>
<path d="M131.993 64.0821C130.067 63.6734 131.993 81.4857 131.993 81.4857L122.463 80.3314V83.884C122.463 83.884 134.737 87.7061 135.636 86.9965C136.534 86.2868 138.47 72.2472 138.47 72.2472C138.47 72.2472 136.188 64.9759 131.993 64.0821Z" fill="#407BFF"/>
<path opacity="0.7" d="M131.993 64.0821C130.067 63.6734 131.993 81.4857 131.993 81.4857L122.463 80.3314V83.884C122.463 83.884 134.737 87.7061 135.636 86.9965C136.534 86.2868 138.47 72.2472 138.47 72.2472C138.47 72.2472 136.188 64.9759 131.993 64.0821Z" fill="white"/>
<path d="M194.022 89.3673C193.6 91.1234 192.867 93.9933 191.915 97.1462C191.914 97.1566 191.914 97.1672 191.915 97.1776C190.379 102.257 188.277 108.078 185.96 111.172C185.403 112.006 184.649 112.69 183.764 113.162C178.15 115.668 157.045 116.71 154.539 114.622C154.243 114.379 153.968 114.112 153.717 113.822C150.205 109.78 154.885 104.507 163.939 100.676C171.808 97.3483 171.256 87.7056 175.85 87.5843C179.443 87.4855 188.677 87.5394 192.625 87.5843C192.842 87.5882 193.055 87.6405 193.249 87.7372C193.443 87.834 193.614 87.9728 193.747 88.1436C193.881 88.3144 193.975 88.5128 194.023 88.7245C194.07 88.9362 194.07 89.1558 194.022 89.3673Z" fill="#407BFF"/>
<path opacity="0.2" d="M185.937 111.159C185.381 111.993 184.626 112.677 183.741 113.149C178.127 115.655 157.023 116.697 154.517 114.609C154.22 114.366 153.945 114.099 153.695 113.809C157.548 112.314 168.466 110.36 168.466 110.36C168.466 110.36 179.439 112.399 185.937 111.159Z" fill="black"/>
<path d="M172.046 158.115V115.448L173.092 114.191C170.757 113.405 167.38 114.752 167.38 114.752L168.727 115.601V122.571H168.682V158.138L156.439 162.359V163.213H160.153L168.718 161.416H172.015L180.62 163.213H184.298V162.359L172.046 158.115Z" fill="#263238"/>
<path opacity="0.4" d="M172.046 158.115V115.448L173.092 114.191C170.757 113.405 167.38 114.752 167.38 114.752L168.727 115.601V122.571H168.682V158.138L156.439 162.359V163.213H160.153L168.718 161.416H172.015L180.62 163.213H184.298V162.359L172.046 158.115Z" fill="white"/>
<path d="M42.375 142.782C42.375 142.782 43.2238 136.571 47.1985 135.892C51.1733 135.214 49.9696 132.205 51.0071 131.046C52.0446 129.888 54.7438 133.292 52.4308 136.633C50.1179 139.975 52.0087 138.915 51.0071 142.023C50.0056 145.131 42.0112 147.933 42.375 142.782Z" fill="#263238"/>
<path opacity="0.2" d="M42.375 142.782C42.375 142.782 43.2238 136.571 47.1985 135.892C51.1733 135.214 49.9696 132.205 51.0071 131.046C52.0446 129.888 54.7438 133.292 52.4308 136.633C50.1179 139.975 52.0087 138.915 51.0071 142.023C50.0056 145.131 42.0112 147.933 42.375 142.782Z" fill="white"/>
<path d="M43.6954 146.977H43.6145C43.5871 146.966 43.5621 146.95 43.5409 146.929C43.5197 146.909 43.5028 146.884 43.4911 146.857C43.4794 146.83 43.4732 146.801 43.4728 146.771C43.4724 146.742 43.4778 146.712 43.4888 146.685C43.4888 146.622 45.9634 140.069 43.5876 130.099C42.8552 127.234 41.821 124.455 40.5021 121.808C38.216 116.836 36.2399 112.547 39.1547 104.539C40.053 102.055 41.0051 99.7379 41.9168 97.5013C45.2853 89.2194 47.9486 82.6802 45.1326 76.608C45.1094 76.5537 45.1082 76.4925 45.1291 76.4372C45.1501 76.382 45.1915 76.337 45.2448 76.3116C45.2713 76.2988 45.3001 76.2914 45.3294 76.29C45.3588 76.2885 45.3882 76.2929 45.4158 76.3029C45.4434 76.313 45.4688 76.3285 45.4903 76.3485C45.5119 76.3685 45.5292 76.3926 45.5413 76.4194C48.4381 82.6622 45.7434 89.2868 42.33 97.6675C41.4318 99.9131 40.4796 102.217 39.5769 104.692C36.725 112.507 38.5709 116.549 40.9108 121.606C42.2325 124.283 43.2726 127.09 44.0142 129.982C46.4216 140.101 43.9199 146.766 43.893 146.833C43.877 146.873 43.8499 146.908 43.8149 146.934C43.78 146.959 43.7385 146.974 43.6954 146.977Z" fill="#263238"/>
<path d="M44.8361 145.576C44.8361 145.576 47.4051 141.704 43.6954 139.714C39.9856 137.725 39.249 139.328 36.9585 137.895C34.668 136.463 32.9164 133 32.5346 135.201C32.1529 137.401 34.7802 138.681 33.8595 139.692C32.9388 140.703 40.0889 147.318 44.8361 145.576Z" fill="#263238"/>
<path d="M46.709 79.6351C46.709 79.6351 48.5953 71.8562 42.9094 72.1527C37.2235 72.4491 44.0142 79.0377 46.709 79.6351Z" fill="#263238"/>
<path d="M42.2177 85.8599C42.2177 85.8599 39.9721 79.1231 36.0647 80.8792C32.1573 82.6352 38.234 86.3091 42.2177 85.8599Z" fill="#263238"/>
<path d="M49.1118 85.9094C49.1118 85.9094 48.0654 80.457 52.3275 80.0034C56.5897 79.5498 55.0762 84.5351 49.1118 85.9094Z" fill="#263238"/>
<path d="M47.1581 97.3575C47.1581 97.3575 52.4803 91.7839 54.8472 95.4263C57.214 99.0687 50.9038 100.38 47.1581 97.3575Z" fill="#263238"/>
<path d="M36.954 97.2631C36.954 97.2631 35.1935 88.86 30.7786 91.8961C26.3637 94.9322 32.9883 98.4353 36.954 97.2631Z" fill="#263238"/>
<path d="M33.855 109.744C33.855 109.744 36.5857 100.892 30.307 102.37C24.0282 103.847 29.1931 108.015 33.855 109.744Z" fill="#263238"/>
<path d="M43.8481 112.021C43.8481 112.021 48.7076 105.284 52.9653 106.946C57.223 108.608 54.38 115.201 43.8481 112.021Z" fill="#263238"/>
<path d="M40.0978 126.429C40.0978 126.429 34.7084 116.643 30.9267 120.389C27.1451 124.134 34.2008 128.706 40.0978 126.429Z" fill="#263238"/>
<path d="M46.709 125.293C46.709 125.293 44.8676 117.514 49.4441 117.784C54.0207 118.053 53.2078 122.967 46.709 125.293Z" fill="#263238"/>
<g opacity="0.2">
<path opacity="0.2" d="M46.709 79.6351C46.709 79.6351 48.5953 71.8562 42.9094 72.1527C37.2235 72.4491 44.0142 79.0377 46.709 79.6351Z" fill="white"/>
<path opacity="0.2" d="M42.2177 85.8599C42.2177 85.8599 39.9721 79.1231 36.0647 80.8792C32.1573 82.6352 38.234 86.3091 42.2177 85.8599Z" fill="white"/>
<path opacity="0.2" d="M49.1118 85.9094C49.1118 85.9094 48.0654 80.457 52.3275 80.0034C56.5897 79.5498 55.0762 84.5351 49.1118 85.9094Z" fill="white"/>
<path opacity="0.2" d="M47.1581 97.3575C47.1581 97.3575 52.4803 91.7839 54.8472 95.4263C57.214 99.0687 50.9038 100.38 47.1581 97.3575Z" fill="white"/>
<path opacity="0.2" d="M36.954 97.2631C36.954 97.2631 35.1935 88.86 30.7786 91.8961C26.3637 94.9322 32.9883 98.4353 36.954 97.2631Z" fill="white"/>
<path opacity="0.2" d="M33.855 109.744C33.855 109.744 36.5857 100.892 30.307 102.37C24.0282 103.847 29.1931 108.015 33.855 109.744Z" fill="white"/>
<path opacity="0.2" d="M43.8481 112.021C43.8481 112.021 48.7076 105.284 52.9653 106.946C57.223 108.608 54.38 115.201 43.8481 112.021Z" fill="white"/>
<path opacity="0.2" d="M40.0978 126.429C40.0978 126.429 34.7084 116.643 30.9267 120.389C27.1451 124.134 34.2008 128.706 40.0978 126.429Z" fill="white"/>
<path opacity="0.2" d="M46.709 125.293C46.709 125.293 44.8676 117.514 49.4441 117.784C54.0207 118.053 53.2078 122.967 46.709 125.293Z" fill="white"/>
</g>
<path d="M45.0517 90.1716H45.0068C44.9771 90.1666 44.9488 90.1551 44.924 90.1381C44.8992 90.121 44.8784 90.0987 44.8631 90.0727C44.8361 90.0323 42.3255 86.0306 40.5964 85.1773C40.5698 85.1644 40.546 85.1463 40.5266 85.1241C40.5071 85.1018 40.4923 85.0759 40.4831 85.0478C40.4739 85.0197 40.4704 84.9901 40.4729 84.9606C40.4754 84.9312 40.4838 84.9025 40.4976 84.8764C40.5105 84.8498 40.5286 84.826 40.5507 84.8065C40.5728 84.7869 40.5986 84.7718 40.6266 84.7623C40.6545 84.7527 40.6841 84.7487 40.7136 84.7505C40.7431 84.7524 40.772 84.76 40.7985 84.7731C42.4288 85.5815 44.5756 88.7927 45.1191 89.6371C48.1192 87.5352 50.1762 83.9242 50.1942 83.8838C50.2242 83.8329 50.2728 83.7957 50.3297 83.7798C50.3866 83.7638 50.4475 83.7706 50.4996 83.7985C50.5513 83.8277 50.5894 83.8763 50.6054 83.9335C50.6214 83.9908 50.614 84.052 50.5849 84.1039C50.4996 84.2656 48.3752 87.9978 45.1954 90.1401C45.153 90.1679 45.1018 90.1791 45.0517 90.1716Z" fill="#263238"/>
<path d="M40.6952 101.126C40.6641 101.123 40.6341 101.113 40.607 101.098C40.5799 101.082 40.5564 101.061 40.538 101.036C40.5066 100.991 37.4256 96.6571 33.8012 94.883C33.7746 94.8701 33.7508 94.852 33.7312 94.8299C33.7117 94.8078 33.6966 94.782 33.687 94.754C33.6774 94.7261 33.6735 94.6965 33.6753 94.667C33.6772 94.6375 33.6848 94.6086 33.6979 94.5821C33.7103 94.5557 33.728 94.532 33.7497 94.5125C33.7714 94.4929 33.7968 94.4779 33.8244 94.4683C33.852 94.4587 33.8812 94.4547 33.9104 94.4565C33.9396 94.4583 33.9681 94.4659 33.9943 94.4788C37.3358 96.1001 40.1159 99.6752 40.7806 100.573C45.3796 96.6166 51.5056 96.2798 51.5595 96.2753C51.5892 96.2735 51.6189 96.2777 51.6469 96.2876C51.6748 96.2976 51.7005 96.3131 51.7223 96.3332C51.7441 96.3534 51.7617 96.3777 51.7738 96.4048C51.786 96.4319 51.7925 96.4612 51.7931 96.4909C51.7943 96.5204 51.7897 96.5498 51.7795 96.5775C51.7693 96.6052 51.7537 96.6307 51.7337 96.6524C51.7137 96.674 51.6896 96.6916 51.6628 96.7039C51.636 96.7163 51.607 96.7233 51.5775 96.7244C51.5191 96.7244 45.3796 97.0703 40.8839 101.072C40.858 101.094 40.8279 101.11 40.7953 101.119C40.7628 101.129 40.7287 101.131 40.6952 101.126Z" fill="#263238"/>
<path d="M38.5035 115.309C38.4583 115.309 38.4142 115.295 38.3777 115.269C34.7488 112.808 31.587 106.219 31.4388 105.927C31.426 105.9 31.4186 105.872 31.4171 105.842C31.4156 105.813 31.42 105.784 31.4301 105.756C31.4401 105.728 31.4556 105.703 31.4756 105.681C31.4956 105.66 31.5197 105.643 31.5466 105.631C31.5731 105.618 31.6019 105.61 31.6314 105.608C31.6609 105.606 31.6905 105.61 31.7185 105.62C31.7464 105.629 31.7722 105.644 31.7943 105.664C31.8165 105.684 31.8345 105.707 31.8475 105.734C31.8789 105.801 34.9913 112.349 38.49 114.811C39.4736 114.146 45.5188 110.176 50.3559 109.695C50.3849 109.691 50.4144 109.694 50.4426 109.702C50.4707 109.71 50.4969 109.723 50.5196 109.742C50.5423 109.76 50.561 109.783 50.5745 109.809C50.5881 109.835 50.5962 109.864 50.5984 109.893C50.6047 109.952 50.5875 110.011 50.5505 110.057C50.5135 110.103 50.4597 110.133 50.4008 110.14C45.3616 110.643 38.6966 115.224 38.6248 115.269C38.5892 115.294 38.547 115.308 38.5035 115.309Z" fill="#263238"/>
<path d="M43.6953 129.376C43.6632 129.375 43.6314 129.368 43.602 129.355C43.5727 129.342 43.5463 129.323 43.5247 129.299C43.4977 129.263 40.803 126.111 35.5662 124.988C35.5066 124.975 35.4545 124.94 35.4212 124.889C35.3879 124.838 35.3763 124.776 35.3888 124.716C35.4013 124.656 35.4369 124.604 35.4879 124.571C35.5389 124.538 35.6009 124.526 35.6605 124.539C38.7238 125.135 41.5389 126.634 43.7447 128.841C46.1116 127.018 48.8962 120.353 48.9231 120.285C48.9458 120.23 48.9895 120.186 49.0447 120.163C49.0998 120.14 49.1619 120.139 49.2173 120.162C49.2727 120.185 49.3168 120.228 49.34 120.283C49.3632 120.339 49.3635 120.401 49.3408 120.456C49.2196 120.748 46.3452 127.62 43.8391 129.331C43.7985 129.363 43.7472 129.379 43.6953 129.376Z" fill="#263238"/>
<path d="M44.4633 144.65C44.4633 144.65 46.6641 141.147 49.1522 140.648C51.6404 140.15 52.7093 137.284 53.6435 139.009C54.5776 140.734 51.9952 146.442 44.4633 144.65Z" fill="#263238"/>
<path d="M54.7573 144.098L54.0117 150.525L53.9129 151.374L53.603 154.069L53.3785 155.973L53.2348 157.212L52.5117 163.464H33.8999L33.1769 157.212L33.0331 155.973L32.8086 154.069L32.4987 151.374L32.3999 150.525L31.6543 144.098H54.7573Z" fill="#407BFF"/>
<path opacity="0.4" d="M53.603 154.068L53.3785 155.973H33.0331L32.8086 154.068H53.603Z" fill="white"/>
<path opacity="0.4" d="M53.2348 157.212L52.5117 163.464H33.9L33.1769 157.212H53.2348Z" fill="white"/>
<path opacity="0.4" d="M54.0118 150.525L53.913 151.374H32.4987L32.3999 150.525H54.0118Z" fill="white"/>
<path d="M99.9631 98.9117C99.8308 98.9361 99.711 98.8979 99.6039 98.797C99.5045 98.6946 99.4359 98.5413 99.3982 98.337C99.2994 97.802 99.2938 97.3353 99.3812 96.9369C99.4686 96.5385 99.6198 96.0932 99.8348 95.6009C100.004 95.2076 100.121 94.8841 100.187 94.6305C100.253 94.377 100.259 94.1043 100.205 93.8125C100.146 93.4915 100.002 93.2565 99.7729 93.1076C99.5502 92.9476 99.2754 92.8977 98.9485 92.9581C98.6683 93.0098 98.4141 93.1372 98.186 93.3402C97.956 93.5336 97.6959 93.8029 97.4055 94.1482C97.236 94.3203 97.089 94.4179 96.9645 94.4409C96.8322 94.4653 96.7019 94.4139 96.5738 94.2867C96.4517 94.1483 96.3717 93.9769 96.334 93.7727C96.2819 93.4906 96.3331 93.2447 96.4876 93.0352C96.7499 92.6246 97.0849 92.2811 97.4927 92.0047C97.8986 91.7185 98.3273 91.5337 98.7788 91.4504C99.2536 91.3627 99.6928 91.3872 100.096 91.524C100.508 91.6593 100.848 91.8882 101.117 92.2108C101.393 92.5319 101.575 92.9259 101.661 93.3928C101.754 93.8986 101.739 94.3592 101.614 94.7745C101.488 95.18 101.281 95.6508 100.993 96.1866C100.75 96.6541 100.572 97.044 100.461 97.3563C100.355 97.6574 100.316 97.9866 100.341 98.344C100.347 98.5039 100.315 98.6356 100.245 98.7389C100.182 98.8311 100.088 98.8887 99.9631 98.9117ZM100.552 101.972C100.303 102.017 100.078 101.953 99.8768 101.779C99.6738 101.596 99.5436 101.348 99.4861 101.037C99.4286 100.725 99.4628 100.453 99.5885 100.218C99.7125 99.9739 99.899 99.8288 100.148 99.7828C100.397 99.7369 100.623 99.8058 100.826 99.9896C101.027 100.164 101.157 100.406 101.214 100.718C101.272 101.029 101.234 101.307 101.103 101.553C100.977 101.787 100.793 101.927 100.552 101.972Z" fill="#407BFF"/>
<path d="M108.744 97.8707C108.623 97.893 108.512 97.8531 108.412 97.7508C108.319 97.6472 108.254 97.4933 108.216 97.289C108.118 96.754 108.105 96.2886 108.18 95.8926C108.254 95.4967 108.386 95.0548 108.576 94.5671C108.725 94.1775 108.828 93.8567 108.884 93.6049C108.941 93.353 108.942 93.0811 108.889 92.7893C108.829 92.4683 108.694 92.2318 108.481 92.0799C108.274 91.9169 108.021 91.8631 107.722 91.9183C107.466 91.9657 107.234 92.0889 107.028 92.2879C106.82 92.4772 106.585 92.7419 106.323 93.0818C106.17 93.2509 106.037 93.3459 105.923 93.367C105.802 93.3894 105.681 93.3361 105.562 93.2073C105.448 93.0675 105.372 92.8954 105.334 92.6911C105.282 92.409 105.325 92.1647 105.464 91.958C105.698 91.5526 106.001 91.2151 106.371 90.9456C106.739 90.6663 107.13 90.4885 107.544 90.4123C107.978 90.332 108.382 90.3631 108.754 90.5056C109.134 90.6467 109.45 90.8802 109.701 91.2059C109.96 91.5303 110.133 91.9259 110.219 92.3928C110.312 92.8987 110.305 93.3577 110.197 93.7699C110.087 94.1725 109.904 94.6388 109.648 95.1688C109.432 95.6313 109.275 96.0174 109.177 96.3271C109.085 96.6258 109.053 96.9535 109.082 97.3102C109.09 97.4698 109.062 97.6006 109 97.7026C108.943 97.7936 108.858 97.8496 108.744 97.8707ZM109.331 100.931C109.103 100.973 108.895 100.906 108.708 100.729C108.519 100.543 108.395 100.294 108.338 99.9825C108.28 99.6712 108.308 99.3997 108.419 99.1678C108.53 98.9261 108.699 98.7843 108.927 98.7422C109.155 98.7001 109.363 98.7722 109.552 98.9586C109.74 99.1353 109.862 99.3792 109.92 99.6905C109.977 100.002 109.947 100.279 109.83 100.522C109.718 100.754 109.552 100.89 109.331 100.931Z" fill="#407BFF"/>
<path d="M117.409 96.8079C117.305 96.8272 117.208 96.7846 117.12 96.6803C117.037 96.5749 116.977 96.42 116.939 96.2157C116.84 95.6807 116.818 95.2171 116.872 94.8249C116.926 94.4327 117.029 93.9962 117.181 93.5155C117.3 93.1315 117.381 92.8148 117.423 92.5655C117.466 92.3162 117.46 92.0457 117.406 91.7539C117.347 91.4329 117.224 91.1941 117.037 91.0375C116.854 90.8701 116.634 90.8101 116.377 90.8575C116.157 90.8982 115.96 91.015 115.787 91.2079C115.612 91.3911 115.415 91.6486 115.198 91.9804C115.07 92.1448 114.958 92.2361 114.86 92.2542C114.756 92.2734 114.65 92.2174 114.544 92.0861C114.442 91.9441 114.372 91.7709 114.334 91.5666C114.282 91.2845 114.313 91.0424 114.428 90.8402C114.62 90.4425 114.873 90.1142 115.186 89.8553C115.497 89.5866 115.83 89.4195 116.185 89.354C116.558 89.2851 116.907 89.3262 117.233 89.4774C117.564 89.6274 117.843 89.8677 118.068 90.1983C118.3 90.5277 118.459 90.9258 118.545 91.3927C118.638 91.8986 118.644 92.3553 118.561 92.7629C118.476 93.1608 118.33 93.6203 118.122 94.1414C117.947 94.5963 117.821 94.9766 117.744 95.2825C117.672 95.5774 117.653 95.9028 117.687 96.2587C117.698 96.4177 117.677 96.5472 117.626 96.6472C117.579 96.7363 117.507 96.7899 117.409 96.8079ZM117.993 99.8687C117.797 99.9048 117.616 99.8326 117.45 99.6521C117.282 99.4618 117.169 99.211 117.112 98.8998C117.054 98.5885 117.071 98.3188 117.162 98.0908C117.251 97.8531 117.393 97.7162 117.589 97.68C117.785 97.6439 117.967 97.7209 118.135 97.9112C118.301 98.0918 118.413 98.3377 118.47 98.6489C118.528 98.9602 118.509 99.2353 118.414 99.4741C118.323 99.7021 118.183 99.8337 117.993 99.8687Z" fill="#407BFF"/>
</svg>
